<mxfile host="app.diagrams.net" modified="2023-11-20T21:47:04.167Z" agent="Mozilla/5.0 (Windows NT 10.0; Win64; x64) AppleWebKit/537.36 (KHTML, like Gecko) Chrome/119.0.0.0 Safari/537.36 Edg/119.0.0.0" etag="3vZVsv-b0CJF0d9S1VTs" version="22.1.3" type="onedrive">
  <diagram name="Page-1" id="Bc7-8ddcqt6sMFrbjhfo">
    <mxGraphModel grid="1" page="1" gridSize="10" guides="1" tooltips="1" connect="1" arrows="1" fold="1" pageScale="1" pageWidth="850" pageHeight="1100" math="0" shadow="0">
      <root>
        <mxCell id="0" />
        <mxCell id="1" parent="0" />
        <mxCell id="LSGkAmyIKIAZ4wc1t0Ki-2" value="ΦΑΡΜΑΚΟ" style="whiteSpace=wrap;html=1;align=center;" vertex="1" parent="1">
          <mxGeometry x="480" y="730" width="100" height="40" as="geometry" />
        </mxCell>
        <mxCell id="LSGkAmyIKIAZ4wc1t0Ki-3" value="ΠΤΕΡΥΓΑ" style="whiteSpace=wrap;html=1;align=center;" vertex="1" parent="1">
          <mxGeometry x="-280" y="760" width="100" height="40" as="geometry" />
        </mxCell>
        <mxCell id="LSGkAmyIKIAZ4wc1t0Ki-4" value="ΕΞΑΓΩΓΕΣ" style="whiteSpace=wrap;html=1;align=center;" vertex="1" parent="1">
          <mxGeometry x="350" y="480" width="100" height="40" as="geometry" />
        </mxCell>
        <mxCell id="LSGkAmyIKIAZ4wc1t0Ki-6" value="ΕΙΣΑΓΩΓΕΣ" style="whiteSpace=wrap;html=1;align=center;" vertex="1" parent="1">
          <mxGeometry x="510" y="290" width="100" height="40" as="geometry" />
        </mxCell>
        <mxCell id="LSGkAmyIKIAZ4wc1t0Ki-7" value="ΘΑΛΑΜΟΣ ΝΟΣΗΛΕΙΑΣ" style="whiteSpace=wrap;html=1;align=center;" vertex="1" parent="1">
          <mxGeometry x="360" y="160" width="100" height="40" as="geometry" />
        </mxCell>
        <mxCell id="LSGkAmyIKIAZ4wc1t0Ki-8" value="ΘΑΛΑΜΟΣ ΕΞΕΤΑΣΗΣ" style="whiteSpace=wrap;html=1;align=center;" vertex="1" parent="1">
          <mxGeometry x="-300" y="490" width="100" height="40" as="geometry" />
        </mxCell>
        <mxCell id="LSGkAmyIKIAZ4wc1t0Ki-9" value="ΑΣΘΕΝΗΣ" style="whiteSpace=wrap;html=1;align=center;" vertex="1" parent="1">
          <mxGeometry x="50" y="170" width="100" height="40" as="geometry" />
        </mxCell>
        <mxCell id="LSGkAmyIKIAZ4wc1t0Ki-10" value="ΙΑΤΡΟΣ" style="whiteSpace=wrap;html=1;align=center;" vertex="1" parent="1">
          <mxGeometry x="-400" y="200" width="100" height="40" as="geometry" />
        </mxCell>
        <mxCell id="LSGkAmyIKIAZ4wc1t0Ki-13" value="ΟΝΟΜΑΤΕΠΩΝΥΜΟ" style="ellipse;shape=doubleEllipse;margin=3;whiteSpace=wrap;html=1;align=center;" vertex="1" parent="1">
          <mxGeometry x="-390" y="75" width="130" height="40" as="geometry" />
        </mxCell>
        <mxCell id="LSGkAmyIKIAZ4wc1t0Ki-14" value="Α.Μ.Κ.Α" style="ellipse;whiteSpace=wrap;html=1;align=center;fontStyle=4;" vertex="1" parent="1">
          <mxGeometry x="-480" y="100" width="90" height="30" as="geometry" />
        </mxCell>
        <mxCell id="LSGkAmyIKIAZ4wc1t0Ki-15" value="Attribute" style="ellipse;whiteSpace=wrap;html=1;align=center;" vertex="1" parent="1">
          <mxGeometry x="-210" y="280" width="100" height="40" as="geometry" />
        </mxCell>
        <mxCell id="LSGkAmyIKIAZ4wc1t0Ki-16" value="Attribute" style="ellipse;whiteSpace=wrap;html=1;align=center;" vertex="1" parent="1">
          <mxGeometry x="-120" y="160" width="100" height="40" as="geometry" />
        </mxCell>
        <mxCell id="LSGkAmyIKIAZ4wc1t0Ki-17" value="Α.Μ.Κ.Α" style="ellipse;whiteSpace=wrap;html=1;align=center;fontStyle=4;" vertex="1" parent="1">
          <mxGeometry x="30" y="80" width="90" height="30" as="geometry" />
        </mxCell>
      </root>
    </mxGraphModel>
  </diagram>
</mxfile>
